<svg width="22" height="22" viewBox="0 0 22 22" fill="none" xmlns="http://www.w3.org/2000/svg">
<path d="M16.1 10.2707C15.8903 9.99717 15.6351 9.76014 15.398 9.5231C14.7872 8.9761 14.0944 8.58409 13.5109 8.00974C12.1525 6.6787 11.8517 4.48159 12.7177 2.795C11.8517 3.00469 11.095 3.47875 10.4477 3.9984C8.08648 5.89467 7.15658 9.24049 8.26881 12.1122C8.30528 12.2034 8.34175 12.2946 8.34175 12.4131C8.34175 12.6137 8.205 12.796 8.02266 12.8689C7.81298 12.9601 7.59418 12.9054 7.42096 12.7595C7.36922 12.7162 7.32595 12.6636 7.29333 12.6045C6.26315 11.3009 6.09905 9.43194 6.79191 7.9368C5.26943 9.17667 4.43981 11.2735 4.55833 13.2518C4.61303 13.7077 4.66773 14.1635 4.82271 14.6193C4.95035 15.1663 5.1965 15.7133 5.47 16.1965C6.4546 17.7737 8.15941 18.9042 9.99186 19.1321C11.9428 19.3782 14.0305 19.0227 15.5257 17.6734C17.194 16.16 17.7775 13.735 16.9205 11.6564L16.802 11.4194C16.6106 11 16.1 10.2707 16.1 10.2707ZM13.2192 16.0142C12.9639 16.233 12.5445 16.47 12.2163 16.5612C11.1953 16.9258 10.1742 16.4153 9.5725 15.8136C10.6574 15.5583 11.3047 14.7561 11.4961 13.9447C11.6511 13.2154 11.3594 12.6137 11.2408 11.9117C11.1314 11.237 11.1497 10.6627 11.3958 10.0336C11.569 10.3801 11.7514 10.7265 11.9702 11C12.6722 11.9117 13.7753 12.3128 14.0123 13.5527C14.0488 13.6803 14.067 13.8079 14.067 13.9447C14.0944 14.6923 13.7662 15.5128 13.2192 16.0142Z" fill="#14B814"/>
</svg>